<mxfile host="app.diagrams.net" agent="Mozilla/5.0 (Windows NT 10.0; Win64; x64; rv:130.0) Gecko/20100101 Firefox/130.0" version="24.7.16">
  <diagram name="Page-1" id="bFSq6mzjkebv_NexRcQI">
    <mxGraphModel dx="803" dy="792" grid="1" gridSize="10" guides="1" tooltips="1" connect="1" arrows="1" fold="1" page="1" pageScale="1" pageWidth="827" pageHeight="1169" math="0" shadow="0">
      <root>
        <mxCell id="0" />
        <mxCell id="1" parent="0" />
        <mxCell id="jK4MxtrZDcPDVMe4_Gox-2" style="edgeStyle=orthogonalEdgeStyle;rounded=0;orthogonalLoop=1;jettySize=auto;html=1;fontFamily=Courier New;" edge="1" parent="1" source="jK4MxtrZDcPDVMe4_Gox-1" target="jK4MxtrZDcPDVMe4_Gox-3">
          <mxGeometry relative="1" as="geometry">
            <mxPoint x="350" y="300" as="targetPoint" />
          </mxGeometry>
        </mxCell>
        <mxCell id="jK4MxtrZDcPDVMe4_Gox-1" value="Cleaned Data" style="rounded=1;whiteSpace=wrap;html=1;fontFamily=Courier New;arcSize=0;" vertex="1" parent="1">
          <mxGeometry x="290" y="110" width="120" height="60" as="geometry" />
        </mxCell>
        <mxCell id="jK4MxtrZDcPDVMe4_Gox-4" style="edgeStyle=orthogonalEdgeStyle;rounded=0;orthogonalLoop=1;jettySize=auto;html=1;fontFamily=Courier New;" edge="1" parent="1" source="jK4MxtrZDcPDVMe4_Gox-5">
          <mxGeometry relative="1" as="geometry">
            <mxPoint x="350" y="500" as="targetPoint" />
          </mxGeometry>
        </mxCell>
        <mxCell id="jK4MxtrZDcPDVMe4_Gox-3" value="???" style="rounded=0;whiteSpace=wrap;html=1;fillColor=#000000;fontColor=#FFFFFF;fontFamily=Courier New;" vertex="1" parent="1">
          <mxGeometry x="290" y="290" width="120" height="60" as="geometry" />
        </mxCell>
        <mxCell id="jK4MxtrZDcPDVMe4_Gox-6" value="" style="edgeStyle=orthogonalEdgeStyle;rounded=0;orthogonalLoop=1;jettySize=auto;html=1;fontFamily=Courier New;" edge="1" parent="1" source="jK4MxtrZDcPDVMe4_Gox-3" target="jK4MxtrZDcPDVMe4_Gox-5">
          <mxGeometry relative="1" as="geometry">
            <mxPoint x="350" y="500" as="targetPoint" />
            <mxPoint x="350" y="350" as="sourcePoint" />
          </mxGeometry>
        </mxCell>
        <mxCell id="jK4MxtrZDcPDVMe4_Gox-5" value="Very good Model" style="rounded=0;whiteSpace=wrap;html=1;fontFamily=Courier New;" vertex="1" parent="1">
          <mxGeometry x="290" y="500" width="120" height="60" as="geometry" />
        </mxCell>
      </root>
    </mxGraphModel>
  </diagram>
</mxfile>
